<svg width="26" height="25" viewBox="0 0 26 25" fill="none" xmlns="http://www.w3.org/2000/svg">
<path d="M22.0729 9.20747C19.6968 -2.37943 -0.114264 0.291234 1.9213 13.2665C3.20208 19.512 9.49252 21.2222 14.6479 19.6571C15.8378 19.2959 17.1486 19.312 18.1982 19.9488L20.1234 21.1168C20.6619 21.4435 21.3738 21.1241 21.4668 20.5085C22.0755 16.4782 22.8104 12.804 22.0729 9.20747Z" fill="white"/>
<path d="M25.4988 10.831C24.1117 4.06666 16.6478 -0.835681 10.0487 0.275318C7.21134 0.753122 4.44763 2.11468 2.52424 4.37981C0.567381 6.68446 -0.417685 9.80987 0.167795 13.5419L0.173655 13.5829L0.182444 13.623L0.219553 13.7968C1.03517 17.4988 4.24201 21.4784 7.82307 23.0038C10.597 24.1854 13.835 24.2195 16.7137 23.3769L16.8504 23.3359C17.6948 23.0795 18.427 23.1451 18.9178 23.4198L18.9647 23.4462L20.8895 24.6142C22.4486 25.56 24.5845 24.6941 24.9022 22.7988L24.909 22.7538C25.485 18.9404 26.2903 14.9421 25.536 11.0175L25.4988 10.831ZM1.78401 11.8876C1.484 4.45724 8.73395 0.891182 14.6981 2.07903C14.7509 2.08955 14.8036 2.10096 14.8563 2.11223C14.8595 2.11292 14.8628 2.11349 14.866 2.11418C15.0255 2.14849 15.1843 2.18627 15.3416 2.22747C15.3438 2.22803 15.3463 2.22885 15.3485 2.22942C15.4525 2.25672 15.5561 2.28504 15.659 2.31536C15.6628 2.31649 15.6669 2.31813 15.6707 2.31926C15.7737 2.34974 15.8765 2.38145 15.9783 2.41497C16.0325 2.4328 16.0866 2.45095 16.1405 2.46965C16.2424 2.50506 16.3436 2.54248 16.4442 2.58098C16.4455 2.58151 16.4477 2.58143 16.449 2.58196C16.5455 2.61894 16.641 2.65832 16.7362 2.69817C16.7471 2.70277 16.7584 2.7072 16.7694 2.71184C16.8355 2.73979 16.9012 2.76844 16.9666 2.79778C17.0047 2.81485 17.0431 2.83199 17.0809 2.84954C17.1055 2.86098 17.1306 2.87305 17.1551 2.88469C17.2012 2.90653 17.2471 2.92855 17.2928 2.9511C17.3513 2.97998 17.4097 3.00992 17.4676 3.03997C17.5093 3.06163 17.5512 3.08313 17.5926 3.1054C17.6203 3.12028 17.6481 3.13613 17.6756 3.15129C17.7141 3.17249 17.7527 3.19402 17.7908 3.21575C17.8542 3.25184 17.9178 3.28854 17.9803 3.3261C18.0211 3.35061 18.062 3.37518 18.1024 3.40032C18.123 3.41315 18.1434 3.42639 18.1639 3.43938C18.3048 3.52857 18.4431 3.62179 18.5789 3.71868C18.6011 3.73452 18.6233 3.75048 18.6453 3.76653C18.9307 3.97405 19.2048 4.1991 19.4647 4.44133C19.4869 4.46205 19.5091 4.48286 19.5311 4.50383C19.8484 4.80611 20.1448 5.13545 20.4168 5.49114C20.4265 5.50381 20.4365 5.51648 20.4461 5.52922C20.6792 5.83758 20.8942 6.16602 21.0887 6.51458C21.0951 6.52612 21.1018 6.53814 21.1082 6.54973C21.5407 7.33344 21.8703 8.21894 22.0731 9.20794L22.1063 9.3759C22.1409 9.55593 22.1725 9.73645 22.2 9.91692C22.439 11.4815 22.4202 13.0641 22.2752 14.6874C22.266 14.791 22.2562 14.895 22.2459 14.999C22.2315 15.1449 22.2162 15.2917 22.2 15.4384C22.1901 15.5281 22.1803 15.618 22.1697 15.7079C22.1272 16.0714 22.08 16.4374 22.0291 16.8056C22.0153 16.9057 22.0005 17.0069 21.9862 17.1073C21.9657 17.2505 21.9449 17.3941 21.9237 17.538C21.8925 17.7489 21.8605 17.9611 21.828 18.1738C21.8217 18.2143 21.8156 18.2552 21.8094 18.2958C21.6978 19.0223 21.5798 19.7594 21.4666 20.5087C21.4537 20.5945 21.4292 20.6746 21.3944 20.748C21.3933 20.7503 21.3916 20.7525 21.3905 20.7548C21.3799 20.7764 21.3685 20.7979 21.3563 20.8183C21.3408 20.8442 21.3235 20.8696 21.3055 20.8935C21.2915 20.912 21.2769 20.9299 21.2615 20.9472C21.033 21.2035 20.6585 21.3152 20.3143 21.204C20.305 21.201 20.2952 21.1976 20.286 21.1943C20.2743 21.1901 20.2623 21.1863 20.2508 21.1816C20.2354 21.1753 20.2201 21.1683 20.2049 21.1611C20.1862 21.1522 20.1676 21.1421 20.1492 21.1318L20.1238 21.1171L18.1981 19.9491C18.1533 19.922 18.108 19.8959 18.0623 19.871C18.0245 19.8504 17.9865 19.8306 17.9481 19.8115C17.922 19.7985 17.8953 19.7856 17.869 19.7734C17.8534 19.7661 17.8378 19.7589 17.8221 19.7519C17.7393 19.7148 17.6552 19.6809 17.5701 19.6503C17.1131 19.486 16.6257 19.414 16.1326 19.4198C16.0944 19.4203 16.0557 19.4214 16.0174 19.4228C15.5575 19.4393 15.0944 19.5217 14.6483 19.6572C14.5291 19.6933 14.4092 19.728 14.2889 19.7607C14.2799 19.7631 14.2706 19.7651 14.2615 19.7675C14.1892 19.787 14.1165 19.806 14.0438 19.8241C14.0321 19.8271 14.0203 19.83 14.0086 19.8329C13.9384 19.8503 13.8682 19.8676 13.7977 19.8837C13.7822 19.8873 13.7663 19.89 13.7508 19.8935C13.6839 19.9085 13.6167 19.9235 13.5496 19.9374C13.4574 19.9566 13.3649 19.975 13.2723 19.9921C13.1989 20.0057 13.1252 20.0189 13.0516 20.0312C12.9951 20.0406 12.9383 20.0489 12.8817 20.0575C12.8163 20.0675 12.7509 20.0779 12.6854 20.0868C12.5938 20.0994 12.5017 20.1105 12.41 20.121C12.3312 20.13 12.2525 20.1389 12.1737 20.1464C7.69248 20.574 3.08885 18.5743 1.95295 13.412L1.9217 13.2665C1.88431 13.0281 1.85475 12.7928 1.83186 12.5615C1.81502 12.3907 1.80199 12.2215 1.7928 12.0546L1.78401 11.8876Z" fill="black"/>
</svg>
