<svg id="katman_1" data-name="katman 1" xmlns="http://www.w3.org/2000/svg" viewBox="0 0 500 500"><defs><style>.cls-1{fill:#fff}</style></defs><g id="Iconly_Light_Chat" data-name="Iconly/Light/Chat"><g id="Chat"><path class="cls-1" d="M249.47 498.19c-35.27 0-70.77-7.47-104.02-22.82-9.34-3.74-18.88-7.6-25.55-7.6-7.58.05-17.77 3.54-27.61 6.92-20.23 6.97-45.33 15.58-63.89-2.98-18.52-18.52-9.97-43.57-3.09-63.74 3.38-9.92 6.88-20.19 6.88-27.97 0-6.34-3.09-14.5-7.78-26.21-43.25-93.38-23.25-205.97 50.12-279.31C121.37 27.61 183.71 1.81 250.06 1.81s128.69 25.8 175.53 72.64c96.8 96.82 96.78 254.33 0 351.13-47.45 47.47-111.37 72.6-176.12 72.6Zm-129.66-65.07c13.51 0 26.09 5.07 39.4 10.46 81.98 37.87 178.8 20.59 241.88-42.49 83.29-83.29 83.29-218.83 0-302.15-40.3-40.3-93.96-62.5-151.04-62.5S139.31 58.63 99.01 98.96C35.86 162.09 18.68 258.98 56.2 340.05c5.41 13.42 10.62 26.43 10.62 39.94s-4.65 27.13-8.73 39.15c-3.38 9.88-8.46 24.81-5.21 28.06 3.29 3.2 18.22-1.87 28.12-5.28 11.91-4.1 25.42-8.75 38.79-8.82Z" id="Stroke-4"/><path class="cls-1" d="M341.22 276.94c-9.56 0-17.43-7.76-17.43-17.32s7.67-17.32 17.23-17.32h.2c9.56 0 17.32 7.76 17.32 17.32s-7.76 17.32-17.32 17.32" id="Stroke-11"/><path class="cls-1" d="M248.64 276.94c-9.56 0-17.41-7.76-17.41-17.32s7.65-17.32 17.21-17.32h.2c9.56 0 17.32 7.76 17.32 17.32s-7.76 17.32-17.32 17.32" id="Stroke-13"/><path class="cls-1" d="M156.06 276.94c-9.56 0-17.43-7.76-17.43-17.32s7.67-17.32 17.23-17.32h.2c9.56 0 17.32 7.76 17.32 17.32s-7.76 17.32-17.32 17.32" id="Stroke-15"/></g></g></svg>