<svg data-name="katman 1" fill="currentColor" xmlns="http://www.w3.org/2000/svg" viewBox="0 0 500 500"><path d="M197.91 492.83c-47.8 0-193.26 0-193.26-90.28 0-80.48 110.29-89.78 193.26-89.78 47.8 0 193.26 0 193.26 90.3 0 80.46-110.29 89.75-193.26 89.75Zm0-143.25c-103.82 0-156.46 17.83-156.46 52.97s52.64 53.48 156.46 53.48 156.46-17.83 156.46-52.95-52.64-53.5-156.46-53.5m0-81.47h-.74c-34.84-.12-67.45-13.78-91.93-38.41-24.49-24.65-37.9-57.38-37.76-92.12 0-71.88 58.51-130.41 130.43-130.41S328.39 65.7 328.39 137.65s-58.53 130.46-130.48 130.46m0-224.14c-51.63 0-93.63 42.03-93.63 93.68-.1 24.99 9.51 48.45 27.07 66.1 17.54 17.68 40.95 27.46 65.89 27.55l.67 18.4v-18.4c51.66 0 93.68-42.03 93.68-93.66s-42.03-93.68-93.68-93.68Zm279.03 194.41H376.6c-10.16 0-18.4-8.24-18.4-18.4s8.24-18.4 18.4-18.4h100.34c10.16 0 18.4 8.24 18.4 18.4s-8.24 18.4-18.4 18.4" data-name="Iconly/Light/Add-User"/></svg>